{
    "asset" : {
        "generator" : "Khronos glTF Blender I/O v3.4.50",
        "version" : "2.0"
    },
    "extensionsUsed" : [
        "KHR_lights_punctual"
    ],
    "extensionsRequired" : [
        "KHR_lights_punctual"
    ],
    "extensions" : {
        "KHR_lights_punctual" : {
            "lights" : [
                {
                    "color" : [
                        1,
                        1,
                        1
                    ],
                    "intensity" : 54351.41306588226,
                    "type" : "point",
                    "name" : "Light"
                }
            ]
        }
    },
    "scene" : 0,
    "scenes" : [
        {
            "extras" : {
                "SMR" : {
                    "subscribed" : 1,
                    "activation_exception" : 0,
                    "SMR_path" : "C:\\Users\\Lauri\\Downloads\\Smudgr Pro - 1 Click Photorealism\\SMR_Files_V4",
                    "previews_dir_smudge" : "",
                    "previews_list_smudge" : [
                        "\\other\\Dust1_SMUDGR_1K.jpg",
                        "\\other\\Dust2_SMUDGR_1K.jpg",
                        "\\smudges\\Fingerprints1_SMUDGR_1K.jpg",
                        "\\smudges\\Fingerprints2_SMUDGR_1K.jpg",
                        "\\smudges\\Fingerprints3_SMUDGR_1K.jpg",
                        "\\smudges\\Fingerprints5_SMUDGR_1K.jpg",
                        "\\smudges\\Fingerprints6_SMUDGR_1K.jpg",
                        "\\smudges\\Glasses1_SMUDGR_1K.jpg",
                        "\\smudges\\Handprints1_SMUDGR_1K.jpg",
                        "\\smudges\\Handprints2_SMUDGR_1K.jpg",
                        "\\smudges\\Smudges1_SMUDGR_1K.jpg",
                        "\\smudges\\Smudges2_SMUDGR_1K.jpg",
                        "\\stains\\Liquid1_SMUDGR_1K.jpg",
                        "\\stains\\Liquid2_SMUDGR_1K.jpg",
                        "\\stains\\Liquid3_SMUDGR_1K.jpg",
                        "\\stains\\Stains1_SMUDGR_1K.jpg",
                        "\\stains\\Stains2_SMUDGR_1K.jpg",
                        "\\wipes\\Dust3_SMUDGR_1K.jpg",
                        "\\wipes\\Dust4_SMUDGR_1K.jpg",
                        "\\wipes\\Fingerprints4_SMUDGR_1K.jpg",
                        "\\wipes\\Wipes1_SMUDGR_1K.jpg",
                        "\\wipes\\Wipes2_SMUDGR_1K.jpg",
                        "\\wipes\\Wipes3_SMUDGR_1K.jpg",
                        "\\wipes\\Wipes4_SMUDGR_1K.jpg",
                        "\\wipes\\Wipes5_SMUDGR_1K.jpg"
                    ],
                    "previews_listsmudge" : [],
                    "SMR_path_smudge" : "\\other\\Dust1_SMUDGR_1K.jpg",
                    "previews_dir_scratch" : "",
                    "previews_list_scratch" : [
                        "\\Scratches_1_heavy_1K.png",
                        "\\Scratches_1_light_1K.png",
                        "\\Scratches_2_Heavy_1K.png",
                        "\\Scratches_2_Light_1K.png",
                        "\\Scratches_3_Heavy_1K.png",
                        "\\Scratches_3_Light_1K.png",
                        "\\Scratches_4_Heavy_1K.png",
                        "\\Scratches_4_Light_1K.png",
                        "\\Scratches_5_Heavy_1K.png",
                        "\\Scratches_5_Light_1K.png",
                        "\\Scratches_6_VAR1_1K.png",
                        "\\Scratches_6_VAR2_1K.png",
                        "\\Scratches_7_1K.png",
                        "\\Scratches_8_1K.png",
                        "\\Scratches_9_1K.png"
                    ],
                    "previews_listscratch" : [],
                    "SMR_path_scratch" : "\\Scratches_1_heavy_1K.png",
                    "previews_dir_dust" : "",
                    "previews_list_dust" : [
                        "\\SMR_Dust1_1K.jpg",
                        "\\SMR_Dust2_1K.jpg",
                        "\\SMR_Dust3_1K.jpg",
                        "\\SMR_Dust4_1K.jpg",
                        "\\SMR_Dust5_1K.jpg",
                        "\\SMR_Dust6_1K.jpg",
                        "\\SMR_Dust7_1K.jpg"
                    ],
                    "previews_listdust" : [],
                    "SMR_path_dust" : "\\SMR_Dust1_1K.jpg",
                    "previews_dir_droplets" : "",
                    "previews_list_droplets" : [
                        "\\Droplet1_Height.png",
                        "\\Droplet2_Height.png",
                        "\\Droplet3_Height.png"
                    ],
                    "previews_listdroplets" : [],
                    "SMR_path_droplets" : "\\Droplet1_Height.png"
                },
                "b_painter_panels" : [
                    "BRUSH",
                    "COLOR",
                    "TEXTURE",
                    "STENCIL",
                    "LAYER"
                ],
                "b_painter_active_tex_brush_category" : "Brush Textures"
            },
            "name" : "Scene",
            "nodes" : [
                0,
                1,
                2
            ]
        }
    ],
    "nodes" : [
        {
            "extras" : {
                "b_painter_active_material" : 0
            },
            "mesh" : 0,
            "name" : "Cube"
        },
        {
            "extensions" : {
                "KHR_lights_punctual" : {
                    "light" : 0
                }
            },
            "name" : "Light",
            "rotation" : [
                -0.28416627645492554,
                0.7269423007965088,
                0.34203392267227173,
                0.5232754945755005
            ],
            "translation" : [
                4.076245307922363,
                5.903861999511719,
                -1.0054539442062378
            ]
        },
        {
            "camera" : 0,
            "name" : "Camera",
            "rotation" : [
                -0.20997299253940582,
                0.3857799470424652,
                0.09062844514846802,
                0.8937962055206299
            ],
            "translation" : [
                7.358891487121582,
                4.958309173583984,
                6.925790786743164
            ]
        }
    ],
    "cameras" : [
        {
            "name" : "Camera",
            "perspective" : {
                "aspectRatio" : 1.7777777777777777,
                "yfov" : 0.39959652046304894,
                "zfar" : 100,
                "znear" : 0.10000000149011612
            },
            "type" : "perspective"
        }
    ],
    "materials" : [
        {
            "doubleSided" : true,
            "extras" : {
                "b_painter" : {}
            },
            "name" : "Material",
            "pbrMetallicRoughness" : {
                "baseColorFactor" : [
                    0.8000000715255737,
                    0.07322271913290024,
                    0.565575122833252,
                    1
                ],
                "metallicFactor" : 0,
                "roughnessFactor" : 0.5
            }
        },
        {
            "doubleSided" : true,
            "name" : "Material.001",
            "pbrMetallicRoughness" : {
                "baseColorFactor" : [
                    0.003425025613978505,
                    0.8000000715255737,
                    0,
                    1
                ],
                "metallicFactor" : 0,
                "roughnessFactor" : 0.5
            }
        }
    ],
    "meshes" : [
        {
            "name" : "Cube",
            "primitives" : [
                {
                    "attributes" : {
                        "POSITION" : 0,
                        "TEXCOORD_0" : 1,
                        "NORMAL" : 2,
                        "TANGENT" : 3
                    },
                    "indices" : 4,
                    "material" : 0
                },
                {
                    "attributes" : {
                        "POSITION" : 5,
                        "TEXCOORD_0" : 6,
                        "NORMAL" : 7,
                        "TANGENT" : 8
                    },
                    "indices" : 9,
                    "material" : 1
                }
            ]
        }
    ],
    "accessors" : [
        {
            "bufferView" : 0,
            "componentType" : 5126,
            "count" : 24,
            "max" : [
                1,
                1.5330042839050293,
                1.0038671493530273
            ],
            "min" : [
                -4.67748498916626,
                -1,
                -1
            ],
            "type" : "VEC3"
        },
        {
            "bufferView" : 1,
            "componentType" : 5126,
            "count" : 24,
            "type" : "VEC2"
        },
        {
            "bufferView" : 2,
            "componentType" : 5126,
            "count" : 24,
            "type" : "VEC3"
        },
        {
            "bufferView" : 3,
            "componentType" : 5126,
            "count" : 24,
            "type" : "VEC4"
        },
        {
            "bufferView" : 4,
            "componentType" : 5123,
            "count" : 36,
            "type" : "SCALAR"
        },
        {
            "bufferView" : 5,
            "componentType" : 5126,
            "count" : 24,
            "max" : [
                1,
                1.5330042839050293,
                1.0038671493530273
            ],
            "min" : [
                -4.67748498916626,
                -1,
                -1
            ],
            "type" : "VEC3"
        },
        {
            "bufferView" : 6,
            "componentType" : 5126,
            "count" : 24,
            "type" : "VEC2"
        },
        {
            "bufferView" : 7,
            "componentType" : 5126,
            "count" : 24,
            "type" : "VEC3"
        },
        {
            "bufferView" : 8,
            "componentType" : 5126,
            "count" : 24,
            "type" : "VEC4"
        },
        {
            "bufferView" : 9,
            "componentType" : 5123,
            "count" : 36,
            "type" : "SCALAR"
        }
    ],
    "bufferViews" : [
        {
            "buffer" : 0,
            "byteLength" : 288,
            "byteOffset" : 0,
            "target" : 34962
        },
        {
            "buffer" : 0,
            "byteLength" : 192,
            "byteOffset" : 288,
            "target" : 34962
        },
        {
            "buffer" : 0,
            "byteLength" : 288,
            "byteOffset" : 480,
            "target" : 34962
        },
        {
            "buffer" : 0,
            "byteLength" : 384,
            "byteOffset" : 768,
            "target" : 34962
        },
        {
            "buffer" : 0,
            "byteLength" : 72,
            "byteOffset" : 1152,
            "target" : 34963
        },
        {
            "buffer" : 0,
            "byteLength" : 288,
            "byteOffset" : 1224,
            "target" : 34962
        },
        {
            "buffer" : 0,
            "byteLength" : 192,
            "byteOffset" : 1512,
            "target" : 34962
        },
        {
            "buffer" : 0,
            "byteLength" : 288,
            "byteOffset" : 1704,
            "target" : 34962
        },
        {
            "buffer" : 0,
            "byteLength" : 384,
            "byteOffset" : 1992,
            "target" : 34962
        },
        {
            "buffer" : 0,
            "byteLength" : 72,
            "byteOffset" : 2376,
            "target" : 34963
        }
    ],
    "buffers" : [
        {
            "byteLength" : 2448,
            "uri" : "materialTest-aa817559d244ec647e2795b1bec725af.bin"
        }
    ]
}
